<svg version="1" xmlns="http://www.w3.org/2000/svg" width="1365.333" height="1365.333" viewBox="0 0 1024.000000 1024.000000"><path d="M368.9 15.4c-.2.2-4.9.6-10.4 1-5.5.3-10.9.8-12 1-1.1.2-4.7.7-8 1.1-17.1 2-41.8 7.7-62 14.3-6 2-11.2 3.6-11.5 3.7-.3.1-1.7.7-3.2 1.3-1.5.6-6.7 2.8-11.5 4.7-40.9 16.9-82.6 44.8-114.4 76.4C67.6 187 30.2 275 29.7 369.4c-.1 15.9.9 42.2 1.7 43.5.2.3.7 3.7 1.1 7.6.4 3.8.8 7.2 1 7.5.1.3.6 2.7.9 5.5.4 2.7 1.1 6.8 1.6 9s1.1 5.1 1.3 6.5c1.7 9.1 8.3 31.8 12.8 44.3 28.9 79.6 87.1 148.9 159.8 190.1 29 16.5 58.9 28.7 89.7 36.6 13.2 3.4 13.2 3.4 28.9 6 18 2.9 18.1 2.9 30.5 3.7 23 1.6 54.5.9 74.5-1.7 54.1-6.9 110.8-28.2 153.3-57.6l6.2-4.3v2.7c0 4.9-3 21.5-5.9 32.8-16.1 61.8-55.8 110.5-111.9 137.5-16.5 8-38.1 14.5-54.2 16.4-3 .4-6.8.8-8.5 1-4.3.6-39.5.6-42.5.1-1.4-.3-5.2-.7-8.5-1.1-8.7-.9-23.8-4.1-33-6.9-26.6-8-43.6-17.5-78.7-44.2-22-16.7-34.7-23.3-49.6-25.9-22.7-4-45.9 4.8-65.7 24.9-10.3 10.4-16 21.1-19.1 35.7-1.1 5.2-.5 21.8 1 28.4 4.2 18.5 11.3 30.1 29.6 48.6 29.2 29.4 59.8 49.7 99.4 65.8 21.4 8.7 46.5 16.1 68.1 20.1 6.1 1.1 12.1 2.2 13.4 2.5 1.3.2 6.9.9 12.5 1.5s11.9 1.3 14.1 1.6c6.9 1 48.5 1.2 58.5.3 5.2-.4 12.4-1.1 16-1.4 3.6-.3 10.6-1.2 15.5-2 62.6-10 118.9-35 169-74.9 13-10.4 38.6-36.1 49.9-50.1 26.5-33 49.9-76.3 62.4-115.6 6-18.7 12-44.4 13.8-58.4.2-2.2.9-6.7 1.4-10 .5-3.3 1.2-10.3 1.6-15.5.3-5.2.8-11.1 1-13 .2-1.9.4-134.7.4-295.1 0-310.9.2-296.6-4.5-309.9C732 43.6 715 26.8 696 19.7c-10.7-3.9-27.7-5.5-39.1-3.6-31.6 5.1-55.8 28.6-61.9 60.1l-1.1 5.6-8.7-5.7C541.2 47 493.7 27.9 446.3 20c-3.9-.6-8-1.3-9-1.5-1-.1-5.2-.6-9.3-1-4.1-.4-8.6-.9-10-1.2-2.9-.5-48.6-1.4-49.1-.9zM410 167c25.8 2.8 49.4 9.9 73.2 22.2 37.9 19.4 69.1 51 88.6 89.6 10.4 20.5 15 34.5 20.8 63.2 1.1 5.8 1.4 54.1.3 59.5-.5 2.7-1.1 6.4-1.4 8-2.3 18.2-12.8 46.8-24.6 67.2-5.2 9.1-14 22.6-15.9 24.3-.3.3-2.3 2.7-4.4 5.5-2.1 2.7-8.9 10-15 16.1-31.8 31.6-72.6 51.8-117.1 57.8-11 1.5-48.1 1.6-55 .2-1.6-.4-6.8-1.3-11.5-2.2-16.6-2.9-33.4-8.7-51-17.4-22.3-11-38.4-22.4-55.6-39.5-18.4-18.2-30.1-34.7-41.4-58-11.2-23.2-17.1-43.3-19.8-67.5-1-8.8-.9-36.7.1-46 1.1-10.2 4.6-27.7 6.2-31.7.8-1.8 1.2-3.3 1-3.3-.9 0 5.9-17.9 10.5-27.7 14.2-30.2 33.9-55.4 60.1-76.8 8.7-7.1 23.6-16.5 36.9-23.1 22.9-11.4 44.1-17.4 72.5-20.7 5.9-.7 35.1-.5 42.5.3zM890.3 553.5c-24.5 4.5-47.2 20.8-60.3 43-29.8 51.2-2.1 116.7 55.7 131.5 52.4 13.4 105.8-26.6 109-81.7 2.1-36.6-19-71.3-52.5-86.5-15.3-7-35.4-9.4-51.9-6.3z"/></svg>